:SAMPLES-PER-SECOND 30
:FULLY-SPECIFIED
:DEGREES
507
root  -80.5105 41.1447 -2.40135 20.7599 88.0207 17.6256
RightUpLeg  -2.40054 -7.2891 -2.85402
RightLeg  3.78299 0.347403 0.111832
RightFoot  -3.24732 -0.0493307 0.381667
RightToes  3.49245e-010 0 -3.6325e-017
Spine  1.64951 1.23192 2.5244
Spine1  0.197482 1.43633 -0.781497
HEad  -12.6338 -0.343591 -1.98358
LeftShoulder1  0.113225 3.00214 -15.8599
LeftArm  -17.5946 13.6289 -16.5908
LeftForeArm  19.2404 -15.155 -1.83189
LeftHand  0.00780182 7.03886 2.77779
RightShoulder  -0.215484 -4.43108 15.8398
RightArm  -8.4061 -3.06707 16.2436
RightForeArm  2.53148 12.0282 -0.780892
RightHand  -0.217763 6.80193 -2.41933
LeftUpLeg  1.31907 5.87733 2.32729
LeftLeg  0.113286 2.43942 0.72375
LeftFoot  -2.55041 0.0557451 -0.531454
LeftToes  -5.6298e-010 8.41567e-011 -1.83319e-011
508
root  -80.5201 41.1425 -2.38352 21.8065 88.1305 18.6452
RightUpLeg  -2.50974 -7.27502 -2.81531
RightLeg  3.94949 0.227441 0.131939
RightFoot  -3.2867 -0.0371771 0.201328
RightToes  3.49245e-010 0 -3.6325e-017
Spine  1.67395 1.25085 2.42117
Spine1  0.393359 1.42366 -0.588846
HEad  -12.8706 -0.58739 -2.23705
LeftShoulder1  -0.000525058 3.5072 -17.0797
LeftArm  -18.7878 14.4349 -18.1962
LeftForeArm  20.6618 -18.5592 -2.5489
LeftHand  -0.0176268 5.42113 2.94457
RightShoulder  -0.247078 -4.5525 16.2632
RightArm  -9.76928 -4.36742 18.1215
RightForeArm  4.30764 14.5974 0.00400658
RightHand  -0.229531 7.52648 -2.42318
LeftUpLeg  1.268 5.92922 2.40091
LeftLeg  0.0919144 2.26704 0.672385
LeftFoot  -2.45081 0.0583812 -0.556433
LeftToes  -5.6298e-010 8.41567e-011 -1.83319e-011
509
root  -80.5487 41.1477 -2.36364 28.9672 88.337 25.7263
RightUpLeg  -2.73027 -7.17063 -2.84019
RightLeg  4.17472 -0.147368 -0.0098785
RightFoot  -3.33561 -0.0422753 0.286688
RightToes  3.49245e-010 0 -3.6325e-017
Spine  1.77194 1.135 2.25013
Spine1  0.52422 1.31287 -0.618258
HEad  -12.9952 -0.687886 -2.4278
LeftShoulder1  -0.107765 3.93423 -18.3647
LeftArm  -19.457 15.4077 -20.2456
LeftForeArm  19.4117 -21.9909 -3.62196
LeftHand  0.0413448 7.38513 4.2378
RightShoulder  -0.265125 -4.56827 17.6405
RightArm  -10.5325 -5.44814 19.7313
RightForeArm  6.80017 17.1872 1.33908
RightHand  -0.239736 7.13281 -2.57924
LeftUpLeg  1.0159 5.84737 2.29386
LeftLeg  0.254587 2.06611 0.661211
LeftFoot  -2.25497 0.0590339 -0.550066
LeftToes  -5.6298e-010 8.41567e-011 -1.83319e-011
510
root  -80.5536 41.1474 -2.36088 31.9327 88.5154 28.6883
RightUpLeg  -2.71231 -7.19672 -2.8472
RightLeg  4.17354 -0.315165 0.0334758
RightFoot  -3.35086 -0.0520105 0.441401
RightToes  3.49245e-010 0 -3.6325e-017
Spine  1.19392 1.11493 2.35799
Spine1  1.76629 1.28802 -0.604575
HEad  -13.5938 -0.818922 -2.58831
LeftShoulder1  -0.248567 4.41201 -20.7672
LeftArm  -20.5975 14.9447 -22.2859
LeftForeArm  21.9949 -23.7032 -3.91797
LeftHand  -0.028505 5.37454 2.98202
RightShoulder  -0.365983 -4.88986 19.3063
RightArm  -11.1212 -5.73042 21.895
RightForeArm  10.0886 18.7954 2.16686
RightHand  -0.278167 7.01001 -2.97243
LeftUpLeg  0.926282 5.84568 2.31099
LeftLeg  0.33696 1.87042 0.675666
LeftFoot  -2.22887 0.0512056 -0.411817
LeftToes  -5.6298e-010 8.41567e-011 -1.83319e-011
511
root  -80.5599 41.1417 -2.35612 41.5901 88.775 38.4734
RightUpLeg  -2.6171 -7.27694 -2.92589
RightLeg  4.35544 -0.57166 0.0511817
RightFoot  -3.50658 -0.0554142 0.494701
RightToes  3.49245e-010 0 -3.6325e-017
Spine  0.505775 1.08461 2.47024
Spine1  3.32084 1.27772 -0.678401
HEad  -14.0759 -0.837572 -2.67979
LeftShoulder1  -0.44054 4.98286 -23.4832
LeftArm  -19.3995 12.9811 -24.3953
LeftForeArm  21.2787 -23.7146 -3.95041
LeftHand  -0.0205289 5.56394 3.32028
RightShoulder  -0.506306 -5.28132 21.6397
RightArm  -9.11961 -5.07527 23.9027
RightForeArm  12.2351 19.3661 2.58006
RightHand  -0.231597 7.97322 -2.38884
LeftUpLeg  1.04441 5.81176 2.27777
LeftLeg  0.229753 1.55796 0.693191
LeftFoot  -2.14937 0.048116 -0.347575
LeftToes  -5.6298e-010 8.41567e-011 -1.83319e-011
512
root  -80.548 41.1439 -2.34406 64.8998 89.043 61.9195
RightUpLeg  -2.38684 -7.25294 -2.96459
RightLeg  4.3836 -1.07717 -0.032644
RightFoot  -3.60522 -0.0585707 0.54053
RightToes  3.49245e-010 0 -3.6325e-017
Spine  -0.0842169 0.95326 2.73782
Spine1  4.3987 1.22253 -1.0967
HEad  -14.0511 -1.25986 -2.91216
LeftShoulder1  -0.544444 5.17955 -26.227
LeftArm  -17.6124 10.9975 -26.3431
LeftForeArm  21.7605 -22.4001 -3.65538
LeftHand  -0.03495 4.89056 2.4139
RightShoulder  -0.617928 -5.5263 23.812
RightArm  -5.49175 -4.50235 26.2466
RightForeArm  12.401 18.9376 2.64602
RightHand  -0.278577 7.2752 -2.92252
LeftUpLeg  1.07289 5.85208 2.27971
LeftLeg  0.384594 1.00247 0.68587
LeftFoot  -2.12057 0.0486071 -0.339782
LeftToes  -5.6298e-010 8.41567e-011 -1.83319e-011
513
root  -80.5435 41.1381 -2.34407 103.992 89.1313 101.117
RightUpLeg  -2.22445 -7.34814 -3.04004
RightLeg  4.51488 -1.54002 -0.0256939
RightFoot  -3.74524 -0.0658673 0.64648
RightToes  3.49245e-010 0 -3.6325e-017
Spine  -0.630816 0.858281 3.06793
Spine1  5.23058 1.16684 -1.30616
HEad  -14.2729 -1.18045 -2.80235
LeftShoulder1  -0.595746 5.22127 -28.5917
LeftArm  -13.8943 8.76506 -28.759
LeftForeArm  20.6701 -19.8792 -3.48758
LeftHand  -0.0231647 5.60967 2.56033
RightShoulder  -0.729583 -5.75379 25.7746
RightArm  -2.6797 -4.47749 28.9399
RightForeArm  13.0877 18.192 2.57469
RightHand  -0.238423 8.13848 -2.44165
LeftUpLeg  1.08418 5.78717 2.24387
LeftLeg  0.414286 0.443425 0.755716
LeftFoot  -2.15577 0.0503864 -0.353251
LeftToes  -5.6298e-010 8.41567e-011 -1.83319e-011
514
root  -80.5579 41.1328 -2.33041 130.599 88.8686 127.836
RightUpLeg  -2.12525 -7.45701 -3.09763
RightLeg  4.68849 -1.96466 0.0245099
RightFoot  -3.8691 -0.0537448 0.446375
RightToes  3.49245e-010 0 -3.6325e-017
Spine  -0.696221 0.938315 3.02331
Spine1  5.3233 1.18729 -1.00628
HEad  -14.1871 -1.62208 -3.10176
LeftShoulder1  -0.507264 4.85663 -31.3087
LeftArm  -11.6161 6.42783 -30.8445
LeftForeArm  21.3963 -16.1199 -3.88869
LeftHand  -0.00625097 6.76483 2.34679
RightShoulder  -0.831753 -5.9403 27.5327
RightArm  0.0105336 -4.96327 31.6297
RightForeArm  12.9279 17.2877 2.6746
RightHand  -0.327196 6.65974 -3.47981
LeftUpLeg  1.11667 5.76348 2.26913
LeftLeg  0.377443 -0.047007 0.74704
LeftFoot  -2.14731 0.0466158 -0.282156
LeftToes  -5.6298e-010 8.41567e-011 -1.83319e-011
515
root  -80.5562 41.1269 -2.32133 146.508 88.4017 143.895
RightUpLeg  -1.93817 -7.4946 -3.16318
RightLeg  4.83367 -2.50417 -0.0337731
RightFoot  -4.0433 -0.0584014 0.501561
RightToes  3.49245e-010 0 -3.6325e-017
Spine  -0.365152 0.766385 3.19133
Spine1  5.01269 1.0624 -1.23862
HEad  -13.7604 -1.82197 -3.37857
LeftShoulder1  -0.481958 4.71903 -33.5142
LeftArm  -8.67948 4.60154 -32.1619
LeftForeArm  23.4242 -12.7737 -5.36756
LeftHand  -0.00769804 6.65221 2.14255
RightShoulder  -0.944636 -6.14565 29.1874
RightArm  2.41114 -4.99778 34.6587
RightForeArm  13.3672 15.2024 2.68689
RightHand  -0.259797 7.34093 -2.73209
LeftUpLeg  1.0659 5.69508 2.2111
LeftLeg  0.65811 -0.563355 0.829064
LeftFoot  -2.22084 0.054391 -0.392615
LeftToes  -5.6298e-010 8.41567e-011 -1.83319e-011
516
root  -80.5519 41.1122 -2.31106 151.626 88.011 149.118
RightUpLeg  -1.92031 -7.59404 -3.25149
RightLeg  5.19986 -2.80323 -0.0298142
RightFoot  -4.36907 -0.0657618 0.593061
RightToes  3.49245e-010 0 -3.6325e-017
Spine  -0.665161 0.650331 3.5872
Spine1  5.54878 1.07139 -1.82676
HEad  -14.5873 -1.64634 -3.01015
LeftShoulder1  -0.402172 4.49218 -34.517
LeftArm  -7.63511 2.77807 -34.5408
LeftForeArm  28.5673 -9.34444 -6.74885
LeftHand  -0.0292641 5.51876 0.895614
RightShoulder  -1.06583 -6.38991 30.3898
RightArm  3.21517 -5.45742 38.0603
RightForeArm  14.8918 13.7813 2.81313
RightHand  -0.131838 7.66359 -1.54668
LeftUpLeg  1.1906 5.73393 2.23131
LeftLeg  0.523571 -1.04272 0.744268
LeftFoot  -2.27065 0.0501927 -0.319565
LeftToes  -5.6298e-010 8.41567e-011 -1.83319e-011
517
root  -80.5541 41.1054 -2.27666 156.073 87.6984 153.722
RightUpLeg  -1.84971 -7.59846 -3.21979
RightLeg  5.53099 -3.13641 -0.042138
RightFoot  -4.60612 -0.0560408 0.413267
RightToes  3.49245e-010 0 -3.6325e-017
Spine  -0.365677 0.458644 3.65124
Spine1  5.34551 0.907473 -1.97442
HEad  -14.841 -1.47378 -2.957
LeftShoulder1  -0.363412 4.3873 -34.9372
LeftArm  -6.05856 2.20315 -37.0923
LeftForeArm  32.9542 -7.63593 -7.8285
LeftHand  -0.0275162 5.8014 0.931917
RightShoulder  -1.15525 -6.59272 30.879
RightArm  3.02477 -6.36844 41.6993
RightForeArm  15.8958 12.5613 2.84941
RightHand  -0.312075 6.26992 -3.45249
LeftUpLeg  1.27417 5.81955 2.33407
LeftLeg  0.592151 -1.50947 0.718925
LeftFoot  -2.31238 0.0486358 -0.290572
LeftToes  -5.6298e-010 8.41567e-011 -1.83319e-011
